<?xml version="1.0" standalone="no"?>
<!DOCTYPE svg PUBLIC "-//W3C//DTD SVG 20010904//EN"
 "http://www.w3.org/TR/2001/REC-SVG-20010904/DTD/svg10.dtd">
<svg version="1.0" xmlns="http://www.w3.org/2000/svg"
 width="666.000000pt" height="374.000000pt" viewBox="0 0 666.000000 374.000000"
 preserveAspectRatio="xMidYMid meet">

<g transform="translate(0.000000,374.000000) scale(0.100000,-0.100000)"
fill="#ffffff" stroke="none">
<path d="M3924 2554 c20 -19 30 -59 20 -76 -9 -16 -359 -576 -430 -689 -62
-98 -102 -139 -174 -178 l-55 -31 343 0 c367 0 384 2 429 51 12 13 47 69 79
124 177 309 406 683 428 697 6 4 135 8 287 8 213 0 279 -3 293 -13 17 -13 11
-26 -94 -188 -62 -96 -118 -177 -124 -181 -6 -4 -123 -8 -260 -8 l-248 0 -40
-40 c-46 -45 -49 -80 -8 -91 14 -4 121 -7 238 -8 170 -1 214 -4 218 -15 3 -7
-43 -94 -103 -192 l-108 -179 -708 -3 -709 -2 -211 167 c-117 91 -231 182
-255 201 -23 18 -40 37 -37 41 2 5 54 10 114 13 97 4 116 8 173 36 l64 31 132
219 c73 121 132 228 132 239 0 11 -12 30 -26 44 l-26 24 -1015 3 c-996 2
-1016 2 -999 -17 9 -10 19 -34 23 -54 5 -36 -2 -54 -361 -831 -58 -126 -106
-231 -106 -233 0 -2 145 -3 323 -3 244 0 327 3 339 13 8 6 54 100 101 207 315
709 355 795 378 807 17 9 90 13 250 13 233 0 289 -7 289 -38 0 -19 -186 -333
-204 -344 -6 -4 -81 -8 -166 -8 -171 0 -203 -8 -208 -51 -3 -21 11 -38 84
-100 48 -41 189 -162 314 -270 125 -108 238 -203 251 -210 20 -12 236 -13
1279 -11 1353 4 1319 2 1368 55 16 17 165 271 238 407 21 39 18 46 -33 68
l-48 20 38 1 c57 1 100 24 139 72 45 57 255 407 263 440 4 17 0 33 -13 50
l-20 24 -927 3 c-846 2 -925 1 -911 -14z"/>
</g>
</svg>
